<?xml version="1.0" encoding="iso-8859-1"?>
<!-- Generator: Adobe Illustrator 19.0.0, SVG Export Plug-In . SVG Version: 6.00 Build 0)  -->
<svg version="1.1" id="Layer_1" xmlns="http://www.w3.org/2000/svg" xmlns:xlink="http://www.w3.org/1999/xlink" x="0px" y="0px"
	 viewBox="0 0 512 512" style="enable-background:new 0 0 512 512;" xml:space="preserve">
<circle style="fill:#CEE8FA;" cx="237.733" cy="235.36" r="153.697"/>
<g>
	<path style="fill:#2D527C;" d="M237.735,403.976c-45.039,0-87.382-17.54-119.231-49.387c-5.829-5.829-5.829-15.28,0-21.11
		c5.829-5.827,15.28-5.827,21.11,0c54.104,54.105,142.14,54.105,196.244,0c54.105-54.104,54.105-142.14,0-196.244
		c-54.104-54.104-142.14-54.105-196.244,0c-5.827,5.829-15.279,5.827-21.109,0c-5.829-5.829-5.829-15.28,0-21.11
		c65.743-65.743,172.718-65.743,238.461,0c65.745,65.745,65.745,172.718,0,238.463C325.117,386.436,282.774,403.976,237.735,403.976
		z"/>
	<path style="fill:#2D527C;" d="M237.735,470.715c-129.776,0-235.358-105.581-235.358-235.358
		c0-62.867,24.481-121.971,68.935-166.424C115.764,24.481,174.868,0,237.735,0c129.776,0,235.358,105.581,235.358,235.358
		c0,8.242-6.683,14.926-14.926,14.926s-14.926-6.684-14.926-14.926c0-113.315-92.19-205.505-205.505-205.505
		c-54.892,0-106.5,21.376-145.315,60.191s-60.191,90.421-60.191,145.315c0,113.315,92.189,205.505,205.505,205.505
		c57.428,0,110.691-23.088,149.979-65.009c5.636-6.015,15.082-6.32,21.098-0.685c6.015,5.638,6.321,15.083,0.684,21.099
		C365.154,443.58,302.55,470.715,237.735,470.715z"/>
	<path style="fill:#2D527C;" d="M250.054,223.787v-43.772c17.471,3.064,20.098,12.749,20.494,18.443
		c0.102,1.46,1.306,2.587,2.769,2.587h19.082c1.603,0,2.864-1.357,2.782-2.957c-1.239-24.008-17.694-39.455-45.127-42.924v-14.72
		c0-1.534-1.243-2.778-2.778-2.778h-19.082c-1.534,0-2.778,1.243-2.778,2.778v14.72c-28.544,3.609-45.202,20.185-45.202,45.881
		s16.659,42.27,45.202,45.879v43.772c-17.471-3.064-20.098-12.749-20.494-18.443c-0.101-1.46-1.306-2.587-2.769-2.587h-19.082
		c-1.603,0-2.864,1.357-2.782,2.957c1.239,24.008,17.694,39.455,45.127,42.924v14.72c0,1.534,1.243,2.778,2.778,2.778h19.082
		c1.534,0,2.778-1.243,2.778-2.778v-14.72c28.544-3.609,45.202-20.185,45.202-45.881
		C295.255,243.972,278.597,227.397,250.054,223.787z M225.414,222.078c-20.56-3.605-20.564-16.379-20.564-21.03
		c0-4.651,0.004-17.425,20.564-21.031V222.078z M250.054,290.699v-42.063c20.56,3.605,20.564,16.38,20.564,21.031
		S270.613,287.093,250.054,290.699z"/>
	<path style="fill:#2D527C;" d="M505.252,449.988c-5.829-5.826-15.28-5.827-21.109,0l-11.05,11.05v-142.82
		c0-8.242-6.683-14.926-14.926-14.926s-14.926,6.684-14.926,14.926v142.82l-11.052-11.051c-5.829-5.827-15.28-5.827-21.109,0
		c-5.829,5.829-5.829,15.28,0,21.11l36.532,36.531c2.915,2.914,6.735,4.372,10.554,4.372s7.639-1.458,10.555-4.372l36.531-36.531
		C511.081,465.268,511.081,455.817,505.252,449.988z"/>
</g>
<g>
</g>
<g>
</g>
<g>
</g>
<g>
</g>
<g>
</g>
<g>
</g>
<g>
</g>
<g>
</g>
<g>
</g>
<g>
</g>
<g>
</g>
<g>
</g>
<g>
</g>
<g>
</g>
<g>
</g>
</svg>
