<svg height="496pt" viewBox="0 0 496 496.00151" width="496pt" xmlns="http://www.w3.org/2000/svg"><path d="m488 0h-448c-4.414062 0-8 3.585938-8 8v24h-24c-4.414062 0-8 3.585938-8 8v320c0 4.425781 3.585938 8 8 8h156.167969c7.617187 9.207031 17.105469 16.785156 27.832031 22.289062v97.710938c0 3.230469 1.953125 6.160156 4.9375 7.390625 2.984375 1.242187 6.421875.554687 8.71875-1.734375l26.34375-26.34375 26.34375 26.34375c1.527344 1.527344 3.578125 2.34375 5.65625 2.34375 1.03125 0 2.074219-.191406 3.066406-.609375 2.980469-1.230469 4.933594-4.160156 4.933594-7.390625v-97.710938c10.722656-5.503906 20.207031-13.074218 27.832031-22.289062h156.167969c4.417969 0 8-3.574219 8-8v-24h24c4.417969 0 8-3.574219 8-8v-320c0-4.414062-3.582031-8-8-8zm-232 468.6875-18.34375-18.34375c-3.128906-3.128906-8.183594-3.128906-11.3125 0l-18.34375 18.34375v-72.09375c7.640625 2.167969 15.671875 3.40625 24 3.40625s16.359375-1.238281 24-3.40625zm-24-84.6875c-39.695312 0-72-32.296875-72-72s32.304688-72 72-72 72 32.296875 72 72-32.304688 72-72 72zm-87.589844-64h-48.976562c-3.519532-24.496094-22.945313-43.910156-47.433594-47.433594v-145.132812c24.488281-3.523438 43.914062-22.945313 47.433594-47.433594h273.144531c3.519531 24.488281 22.941406 43.910156 47.429687 47.433594v145.140625c-24.488281 3.515625-43.910156 22.9375-47.429687 47.433593h-48.976563c.230469-2.648437.398438-5.304687.398438-8.007812 0-48.519531-39.480469-88-88-88s-88 39.480469-88 88c0 2.703125.167969 5.359375.410156 8zm303.589844 32h-137.710938c2.601563-5.070312 4.71875-10.414062 6.304688-16h59.40625c4.417969 0 8-3.574219 8-8 0-22.054688 17.945312-40 40-40 4.417969 0 8-3.574219 8-8v-160c0-4.414062-3.582031-8-8-8-22.054688 0-40-17.945312-40-40 0-4.414062-3.582031-8-8-8h-288c-4.414062 0-8 3.585938-8 8 0 22.054688-17.941406 40-40 40-4.414062 0-8 3.585938-8 8v160c0 4.425781 3.585938 8 8 8 22.058594 0 40 17.945312 40 40 0 4.425781 3.585938 8 8 8h59.410156c1.582032 5.585938 3.703125 10.929688 6.300782 16h-137.710938v-304h432zm32-32h-16v-280c0-4.414062-3.582031-8-8-8h-408v-16h432zm0 0"/><path d="m232 256c-30.878906 0-56 25.128906-56 56h16c0-22.054688 17.945312-40 40-40zm0 0"/><path d="m272 312c0 22.054688-17.941406 40-40 40v16c30.878906 0 56-25.128906 56-56zm0 0"/><path d="m352 136v-32c0-4.414062-3.582031-8-8-8h-224c-4.414062 0-8 3.585938-8 8v32c0 4.414062 3.585938 8 8 8h224c4.417969 0 8-3.585938 8-8zm-16-8h-208v-16h208zm0 0"/><path d="m64 160h64v16h-64zm0 0"/><path d="m64 192h64v16h-64zm0 0"/><path d="m144 192h256v16h-256zm0 0"/><path d="m144 160h256v16h-256zm0 0"/></svg>